<?xml version="1.0" encoding="utf-8"?>
<!-- Generator: Adobe Illustrator 24.0.1, SVG Export Plug-In . SVG Version: 6.00 Build 0)  -->
<svg version="1.1" id="Layer_1" xmlns="http://www.w3.org/2000/svg" xmlns:xlink="http://www.w3.org/1999/xlink" x="0px" y="0px"
	 viewBox="0 0 34.087 32" style="enable-background:new 0 0 34.087 32;" xml:space="preserve">
<style type="text/css">
	.st0{fill:#00919B;}
	.st1{fill:#F78D33;}
	.st2{fill-rule:evenodd;clip-rule:evenodd;fill:#E0E1E2;}
</style>
<g>
	<g>
		<path class="st0" d="M9.329,21.593l-0.053,0C9.277,21.593,9.295,21.596,9.329,21.593z"/>
		<path class="st0" d="M25.192,16.988c-0.601-6.807-1.702-7.207-2.603-8.609s-2.803-1.201-2.803-1.201V5.677h-1.251h-1.251v1.502
			c0,0-1.902-0.2-2.803,1.201s-2.002,1.802-2.603,8.609c-1.297,4.217-2.313,4.58-2.55,4.605l9.207,0.002l9.207-0.002
			C27.505,21.569,26.49,21.205,25.192,16.988z"/>
		<path class="st0" d="M27.795,21.593l-0.053,0C27.777,21.596,27.795,21.593,27.795,21.593z"/>
	</g>
	<path class="st0" d="M16.183,22.644c0,0,0.2,2.002,2.352,2.002s2.352-2.002,2.352-2.002H16.183z"/>
	<path class="st1" d="M6.242,11.66l-0.037-0.038c-0.255-0.262-0.677-0.26-0.926,0.008c-0.555,0.597-1.472,1.688-2,2.883
		c-0.794,1.798-0.966,4.216-0.216,6.695c0.54,1.783,1.978,3.22,2.743,3.886c0.266,0.232,0.669,0.201,0.902-0.065l0,0
		c0.243-0.279,0.2-0.702-0.092-0.93c-0.844-0.656-2.366-2.136-2.622-4.421c-0.337-3.004,0.322-4.861,2.283-7.159
		C6.489,12.269,6.471,11.895,6.242,11.66z"/>
	<path class="st1" d="M24.41,2.931l0.035-0.084c0.141-0.338,0.533-0.491,0.863-0.335c0.755,0.357,2.058,1.054,3.025,2.003
		c1.443,1.416,2.526,3.662,2.751,6.316c0.163,1.921-0.676,3.852-1.153,4.773c-0.162,0.314-0.548,0.434-0.862,0.272l-0.034-0.017
		c-0.329-0.169-0.446-0.578-0.258-0.897c0.556-0.941,1.463-2.944,0.835-5.24c-0.821-3.003-2.159-4.527-4.915-5.98
		C24.408,3.589,24.283,3.236,24.41,2.931z"/>
	<path class="st1" d="M26.645,0.654l0.064-0.203c0.124-0.394,0.583-0.573,0.937-0.361c0.803,0.479,2.138,1.371,3.161,2.525
		c1.565,1.766,2.815,4.489,3.215,7.64c0.283,2.236-0.418,4.423-0.849,5.504c-0.148,0.372-0.601,0.514-0.938,0.299l-0.148-0.094
		c-0.278-0.177-0.375-0.535-0.228-0.83c0.5-1.004,1.415-3.401,0.59-6.283c-1.046-3.654-2.538-5.542-5.531-7.462
		C26.672,1.231,26.558,0.932,26.645,0.654z"/>
	<path class="st1" d="M3.713,10.394l-0.107-0.132C3.343,9.939,2.849,9.949,2.596,10.28c-0.554,0.726-1.426,1.998-1.929,3.392
		c-0.779,2.158-0.93,5.067-0.158,8.057c0.543,2.103,1.942,3.814,2.724,4.645c0.277,0.294,0.752,0.266,0.989-0.062l0.078-0.108
		c0.193-0.268,0.15-0.636-0.096-0.856c-0.817-0.735-2.489-2.567-2.778-5.453c-0.368-3.672,0.299-5.913,2.307-8.718
		C3.902,10.941,3.897,10.62,3.713,10.394z"/>
	<path class="st2" d="M18.535,29.334c5.481,0,9.924,0.597,9.924,1.333S24.016,32,18.535,32s-9.924-0.597-9.924-1.333
		S13.054,29.334,18.535,29.334z"/>
</g>
</svg>
