<svg id="Layer_1" data-name="Layer 1" xmlns="http://www.w3.org/2000/svg" xmlns:xlink="http://www.w3.org/1999/xlink" viewBox="0 0 602.75 284.25"><defs><style>.cls-1{fill:#8b005a;}.cls-2{fill:url(#linear-gradient);}</style><linearGradient id="linear-gradient" x1="196.71" y1="16.12" x2="398.58" y2="16.12" gradientUnits="userSpaceOnUse"><stop offset="0.07" stop-color="#f26a38"/><stop offset="0.26" stop-color="#f68e64"/><stop offset="0.43" stop-color="#f9a985"/><stop offset="0.57" stop-color="#fab99a"/><stop offset="0.66" stop-color="#fbbfa1"/><stop offset="0.68" stop-color="#fbc2a5"/><stop offset="0.8" stop-color="#fdd7c2"/><stop offset="0.91" stop-color="#fee3d5"/><stop offset="0.99" stop-color="#fee8db"/></linearGradient></defs><title>Eliquis_logo</title><path class="cls-1" d="M14.24,193.6l2,1.19c1,.59.77,1.28.43,1.88C9,208.51,6.17,220.66,6.17,233.48c0,13.43,2.49,24.38,10.47,36.82.59,1,.25,1.49-.6,2l-2,1.18c-.86.49-1.28.4-2-.58A68.67,68.67,0,0,1,0,233.69c0-13.83,3-25.57,12-39.39a1.6,1.6,0,0,1,2.23-.7"/><path class="cls-1" d="M40.14,257.39H40c-1.89,4.26-4.72,6.44-9.09,6.44H26.59a11.17,11.17,0,0,1-9.17-4.37c-2-2.8-3.09-6.68-3.09-11.43v-3.64c0-7.42,2.32-12.88,6.69-15.32,1.89-1.09,4.89-1.7,10.29-1.7h2.57a44,44,0,0,1,5.75.36v-6.92c0-9.36-3.6-11.91-10.38-11.91a22.85,22.85,0,0,0-8.83,1.82c-1.28.49-2,.49-2.23-1l-.43-2.55c-.26-1.45-.17-2.3.95-2.8a30.82,30.82,0,0,1,11-2.3c11,0,15.52,5.22,15.52,17.87v41.56c0,.85-.17,1.22-1,1.22H41.43c-.77,0-1.12-.37-1.12-1.22Zm-.51-23a32.05,32.05,0,0,0-5.14-.37H29.68c-3.77,0-6,.74-7.54,2.44s-2.15,4.25-2.15,8v2.56c0,3.89.6,6.32,1.81,7.9s2.82,2.18,5.22,2.18h3.52c5.66,0,9.09-4.25,9.09-12.64Z"/><path class="cls-1" d="M58.07,257.39H57.9v25.52c0,.86-.26,1.34-.86,1.34H53.18c-.6,0-.86-.48-.86-1.34V204.52c0-.85.26-1.33.86-1.33h2.58c.59,0,.94.36,1,1.33l.52,4.87h.17c2.23-4.38,6.34-7.3,12.43-7.3,11.32,0,15.69,8.5,15.69,27.22v6.33c0,17.5-3.59,28.19-15.78,28.19-6.51,0-9.6-2.55-11.74-6.44m-.17-33.18v17.13c0,10.45,4.28,15.69,11.4,15.69,4,0,6.43-1.22,8.31-4.5s2.32-8.39,2.32-17.5v-4.62c0-8.38-.51-13.74-2.66-17.38-1.62-2.67-4.19-4.13-8.15-4.13-8.06,0-11.22,5.59-11.22,15.31"/><path class="cls-1" d="M99.23,192.48c0,3.16-1.55,4.6-3.77,4.6h-.34c-2.84,0-4-1.44-4-4.6v-.58c0-3.27,1.72-4.52,4-4.52h.34c2.22,0,3.77,1.25,3.77,4.52ZM98,261.76c0,.61-.26,1-.77,1H93.14c-.51,0-.68-.25-.68-1V204.52c0-.85.25-1.33,1-1.33H97c.68,0,1,.48,1,1.33Z"/><path class="cls-1" d="M120.68,228.47c1.11,0,9.5-23.95,9.5-23.95.43-1,.94-1.33,1.63-1.33h3.43c.69,0,1.2.6.6,1.94L126.5,231a3,3,0,0,0,0,2.43l10.11,27.95c.35.85.09,1.34-.6,1.34h-4.46c-.51,0-.77-.25-1-.85,0,0-8.91-26.38-9.85-26.38h-1.29c-1,0-9.68,26.38-9.68,26.38-.26.6-.52.85-1,.85H104.2c-.69,0-.94-.49-.6-1.34l10-27.95a3,3,0,0,0,0-2.43l-9.09-25.89c-.51-1.34-.09-1.94.6-1.94h3.43a1.68,1.68,0,0,1,1.63,1.33s8.38,23.95,9.32,23.95Z"/><path class="cls-1" d="M165.17,257.39H165c-1.88,4.26-4.71,6.44-9.08,6.44h-4.29a11.19,11.19,0,0,1-9.18-4.37c-2-2.8-3.08-6.68-3.08-11.43v-3.64c0-7.42,2.31-12.88,6.69-15.32,1.88-1.09,4.88-1.7,10.29-1.7h2.57a44.1,44.1,0,0,1,5.74.36v-6.92c0-9.36-3.6-11.91-10.37-11.91a22.85,22.85,0,0,0-8.83,1.82c-1.29.49-2,.49-2.24-1l-.43-2.55c-.24-1.45-.17-2.3.95-2.8a30.83,30.83,0,0,1,11-2.3c11,0,15.51,5.22,15.51,17.87v41.56c0,.85-.17,1.22-.94,1.22h-2.83c-.77,0-1.11-.37-1.11-1.22Zm-.52-23a32,32,0,0,0-5.14-.37h-4.8c-3.78,0-6,.74-7.55,2.44s-2.14,4.25-2.14,8v2.56c0,3.89.6,6.32,1.8,7.9s2.83,2.18,5.23,2.18h3.52c5.65,0,9.08-4.25,9.08-12.64Z"/><path class="cls-1" d="M182.12,207.92h.16c2-3.53,5.83-5.83,10.8-5.83,11.49,0,16.63,8.87,16.63,28.2v5.58c0,21.4-6.25,28-17.05,28-6.17,0-10.54-2.31-12.95-6.32-2.15-3.65-3.18-8.26-3.18-14.95V181.8c0-1,.43-1.34,1-1.34h3.52c.59,0,1,.36,1,1.34Zm19.45,44.37c1.72-3.4,2.49-8.38,2.49-17.38v-4.13c0-9.12-1.12-14.83-3.43-18.12-1.89-2.67-4.29-3.76-8.15-3.76s-6.51,1.46-8.06,3.64c-1.88,2.68-2.3,5.72-2.3,12.52v16.65c0,5.36.5,8.15,1.79,10.7,1.71,3.4,4.72,4.62,8.83,4.62s7.12-1.34,8.83-4.74"/><path class="cls-1" d="M240.31,257.39h-.16c-1.89,4.26-4.71,6.44-9.09,6.44h-4.29a11.16,11.16,0,0,1-9.17-4.37c-2-2.8-3.09-6.68-3.09-11.43v-3.64c0-7.42,2.32-12.88,6.68-15.32,1.89-1.09,4.9-1.7,10.29-1.7h2.58a44.37,44.37,0,0,1,5.75.36v-6.92c0-9.36-3.61-11.91-10.39-11.91a22.88,22.88,0,0,0-8.82,1.82c-1.29.49-2,.49-2.23-1l-.43-2.55c-.26-1.45-.17-2.3.93-2.8a31,31,0,0,1,11-2.3c11,0,15.52,5.22,15.52,17.87v41.56c0,.85-.17,1.22-.95,1.22H241.6c-.76,0-1.11-.37-1.11-1.22Zm-.5-23a32.18,32.18,0,0,0-5.15-.37h-4.8c-3.77,0-6,.74-7.55,2.44s-2.14,4.25-2.14,8v2.56c0,3.89.6,6.32,1.8,7.9s2.83,2.18,5.23,2.18h3.51c5.67,0,9.1-4.25,9.1-12.64Z"/><path class="cls-1" d="M283.11,262.74h-2.4c-1.38,0-1.55-.37-1.55-2.06V225.19c0-7.42-1-11.68-3.94-14.23a10.08,10.08,0,0,0-6.94-2.31,8.68,8.68,0,0,0-8.4,5.11c-1,2.19-1.55,4.62-1.55,9.48v37.68c0,1.33-.52,1.82-1.54,1.82h-2.66c-1,0-1.38-.49-1.38-1.82v-56.4c0-.85.26-1.33.86-1.33h2.58c.68,0,.94.36,1,1.33l.43,4.87h.17a12.55,12.55,0,0,1,3.52-4.63,12.74,12.74,0,0,1,8.06-2.67c6.43,0,11.06,2.67,13.29,8.14,1.55,3.77,2.06,9,2.06,15.68v34.77c0,1.69-.69,2.06-1.63,2.06"/><path class="cls-1" d="M289.28,272.3l-2.06-1.18c-1-.59-.77-1.29-.43-1.88,7.73-11.84,10.55-24,10.55-36.81,0-13.43-2.48-24.39-10.46-36.82-.6-1-.26-1.49.6-2l2-1.19c.86-.5,1.29-.4,2,.59a68.68,68.68,0,0,1,12.08,39.18c0,13.82-3,25.57-12,39.4a1.59,1.59,0,0,1-2.23.68"/><path class="cls-1" d="M327.61,262.94c-3.65,0-6.26-1.3-7.88-4s-2.32-6.38-2.32-11.48V219.75h-4.29c-.5,0-.71-.2-.71-1.1v-2c0-.9.21-1.2.71-1.3l4.29-1.3V202.79c0-.7.35-1.2.84-1.2h3c.49,0,.78.5.78,1.2v11.27h8.22c.5,0,.71.31.71,1v3.69c0,.59-.21,1-.71,1H322v26.93c0,3.59.2,6.38,1.26,8.17s2.53,2.5,5.13,2.5h2.54c.42,0,.84,0,.84,1.1v3.38c0,.71-.21,1.11-.84,1.11Z"/><path class="cls-1" d="M355.4,258.55h-.14c-1.55,3.48-3.87,5.28-7.47,5.28h-3.52a9.11,9.11,0,0,1-7.52-3.59,16.07,16.07,0,0,1-2.54-9.38v-3c0-6.08,1.9-10.57,5.48-12.57,1.55-.89,4-1.39,8.46-1.39h2.12a35.75,35.75,0,0,1,4.71.3v-5.69c0-7.68-3-9.77-8.52-9.77a19,19,0,0,0-7.26,1.49c-1.05.41-1.62.41-1.83-.79l-.35-2.1c-.21-1.19-.14-1.89.78-2.29a24.92,24.92,0,0,1,9-1.89c9,0,12.74,4.28,12.74,14.66v34.11c0,.69-.14,1-.77,1h-2.33c-.63,0-.91-.31-.91-1ZM355,239.7a25.92,25.92,0,0,0-4.22-.31h-3.95c-3.1,0-4.93.6-6.2,2s-1.76,3.49-1.76,6.58v2.1c0,3.19.49,5.19,1.48,6.48a5,5,0,0,0,4.3,1.79h2.88c4.65,0,7.47-3.49,7.47-10.37Z"/><path class="cls-1" d="M368.91,218h.15a9.75,9.75,0,0,1,8.86-4.79c9.43,0,13.66,7.28,13.66,23.13v4.59c0,17.56-5.14,22.94-14,22.94-5.07,0-8.66-1.89-10.62-5.18-1.76-3-2.61-6.79-2.61-12.27V196.51c0-.8.35-1.1.85-1.1h2.88c.49,0,.84.3.84,1.1Zm16,36.4c1.41-2.79,2-6.89,2-14.26v-3.4c0-7.48-.92-12.16-2.82-14.86-1.54-2.19-3.51-3.09-6.68-3.09s-5.35,1.2-6.61,3c-1.55,2.19-1.91,4.69-1.91,10.27v13.67c0,4.39.42,6.68,1.48,8.78,1.4,2.79,3.88,3.79,7.25,3.79s5.84-1.1,7.25-3.89"/><path class="cls-1" d="M400.8,249.87c0,3.19,0,5.19.62,6.28.42.8,1.2,1.1,2.54,1.1h1.9c.49,0,.84,0,.84,1.09v3.4c0,.7-.21,1.2-.7,1.2h-2.68c-2.52,0-4.29-.7-5.41-2.3-1.2-1.8-1.7-4.79-1.7-9.18v-55c0-.8.36-1.1.85-1.1H400c.49,0,.85.3.85,1.1Z"/><path class="cls-1" d="M434.7,238.4c0,2.79-.62,3.79-2.6,3.79H414c.28,12,2.6,16.06,9.21,16.06a16.15,16.15,0,0,0,7.74-2c.91-.51,1.48-.3,1.69.69l.5,2.29c.2,1,.27,1.7-1.55,2.7a17.66,17.66,0,0,1-8.38,1.89c-10.41,0-13.86-7.28-13.86-23.33v-4c0-15.66,3.38-23.33,13.23-23.33,4.09,0,7.11,1.39,9.08,4.08,2.11,2.89,3.09,6.68,3.09,13ZM414,236.5h15.12c.71,0,1-.1,1-1.49v-3.8c0-4.78-.42-7.17-1.61-9.26a6.19,6.19,0,0,0-5.85-3.2c-6,0-8.58,3.79-8.65,17.75"/><path class="cls-1" d="M452.51,262.94c-3.67,0-6.26-1.3-7.88-4s-2.33-6.38-2.33-11.48V219.75H438c-.49,0-.7-.2-.7-1.1v-2c0-.9.21-1.2.7-1.3l4.29-1.3V202.79c0-.7.36-1.2.84-1.2h3c.5,0,.78.5.78,1.2v11.27h8.23c.49,0,.71.31.71,1v3.69c0,.59-.22,1-.71,1h-8.23v26.93c0,3.59.21,6.38,1.26,8.17s2.54,2.5,5.14,2.5h2.54c.41,0,.84,0,.84,1.1v3.38c0,.71-.21,1.11-.84,1.11Z"/><path class="cls-1" d="M460.84,261.44a1.4,1.4,0,0,1-.84-1.7l.56-2.89c.21-1.1.64-1.4,1.34-1a17.64,17.64,0,0,0,8.51,2.4c3.38,0,4.86-.7,6-2s1.76-3.4,1.76-6.39v-.6c0-3.49-.42-5.39-1.9-6.68-1.06-.9-2.61-1.4-4.92-2.09l-2-.51a14.19,14.19,0,0,1-5.5-2.49c-2.59-2.09-3.58-5.68-3.58-10.37v-1c0-8.89,3.87-13,11.26-13a21.25,21.25,0,0,1,7.88,1.39,1.47,1.47,0,0,1,1.05,1.8l-.41,2.59c-.22,1.19-.64,1.7-1.63,1.29a20.84,20.84,0,0,0-7-1.49c-3,0-4.65.8-5.56,2a8.86,8.86,0,0,0-1.41,5.19v.7a8.43,8.43,0,0,0,1.12,4.89c.92,1.29,2.19,2.09,5.5,3l1.83.5c3.44,1,6.26,2.29,7.67,4.79a18.93,18.93,0,0,1,1.75,8.77v1c0,3.49-.7,7.08-2,9.27-1.9,3.4-5.21,5-10,5a20.56,20.56,0,0,1-9.57-2.39"/><path class="cls-1" d="M22.57,148.48c-15.33,0-20.9-3-20.9-13.94,0-4.94,1.47-12.34,3.16-20.28C9.48,92.21,26.07,34.57,26.07,34.57l69.05-.2c2.54,0,2.49.5,2,2.64l-1.27,5.12c-.55,2-.78,2.64-3.32,2.64l-55.19,0S30,69.64,26.37,84.28H78.59c2.54,0,2.33.49,1.86,2.64L79.19,92c-.52,2-.58,2.65-3.12,2.65H23.84c-3.8,16-5.7,25-6.76,31.39a49,49,0,0,0-.63,6.89c.21,3.52,3,5.11,9.51,5.11h48.6c2.2,0,2.1.42,1.67,2.65l-1,5.11c-.43,1.76-.69,2.65-3,2.65Z"/><path class="cls-1" d="M127.16,139.3c1.86,0,2.53.2,2.11,2l-1.06,5.1c-.42,1.59-.63,2.12-2.82,2.12H116.8c-8.23,0-12.67-.88-15.83-3.53-3.6-3.18-4.23-8.82-2.12-17.82l20.8-90.64c.31-1.53.64-2.12,2.53-2.12h9.62c1.9,0,1.93.35,1.58,2.12l-20.59,89.93c-1.48,6.54-1.69,9.36-.2,11.12,1.26,1.41,3.37,1.76,7.81,1.76Z"/><path class="cls-1" d="M160.69,147.06c-.22.89-.45,1.42-1.62,1.42h-11c-1.27,0-1.36-.51-1.07-1.76L166.18,64c.27-1.65.56-1.94,2.46-1.94h9.54c1.68,0,2,.5,1.74,1.94Z"/><path class="cls-1" d="M254.61,184.07a2,2,0,0,1-2.12,1.93H242c-1.48,0-2-.7-1.57-2.29l9.71-43.35h-.63c-6.34,7-15.21,9.7-27.67,9.7-19.65,0-30.84-6.53-30.84-23.64,0-7,2.53-18.51,4.86-29.45,6.12-29.62,17.53-36.5,42-36.5,15.84,0,24.72,4.93,27.46,11.64h.42l3-7.58c1.06-2.32,1.19-2.47,3.51-2.47h6.22c2.33,0,2.54.6,2.09,2.82ZM209.2,98.73c-2.33,10.41-4.45,19.23-4.45,26.82,0,10.76,5.5,14.81,18.38,14.81,16.69,0,27.89-7.24,31.48-22.22l5.28-22.93a45.54,45.54,0,0,0,1.48-9.52c0-9.53-7.81-15.52-22.39-15.52-21.12,0-25.77,10-29.78,28.56"/><path class="cls-1" d="M375,62.06c2,0,2.09.7,1.66,2.29L364,119c-2.76,12.17-6.13,18.52-12.9,23.46-7.4,5.29-16.06,7.58-31.91,7.58-20.7,0-32.11-6.17-32.11-20.46a51.22,51.22,0,0,1,1.49-10.4l12.67-54.67c.42-1.6.72-2.47,3.07-2.47h8.83c2.38,0,2.25.87,1.83,2.47l-12.46,52.9a44.65,44.65,0,0,0-1.48,10.4c0,8.3,4.86,12,20.28,12,9.51,0,15.63-1.59,20.49-5.48,4.64-3.7,6.76-7.94,8.88-17.1L363.1,64.35a2.55,2.55,0,0,1,2.62-2.29Z"/><path class="cls-1" d="M397.12,147.06a1.57,1.57,0,0,1-1.78,1.42H384.87c-1.39,0-1.69-.36-1.48-1.42L402.61,64c.21-1.24.57-1.94,2.7-1.94h9.28c1.85,0,2,.7,1.75,1.94Z"/><path class="cls-1" d="M422.36,145c-2.43-.82-2.15-1.62-1.51-3.21l1.9-4.94c.64-1.41,1.07-2.28,3.75-1.38a82.17,82.17,0,0,0,25.83,4.73c11.19,0,19.21-2.11,23.22-9a20.05,20.05,0,0,0,3-10.92c0-4.94-3.38-7.24-12.89-9.88L452.53,107c-13.3-3.35-19.43-9.35-19.43-17.63a28.68,28.68,0,0,1,2.12-10.94c4.64-12.88,15.2-18,35.9-18A90.59,90.59,0,0,1,496.39,64c2.74.79,2.61,1.4,2,3l-1.9,5.12c-.8,1.89-1.65,2.24-4,1.53a79.69,79.69,0,0,0-22.21-3.3c-13.74,0-18.8,3.35-21.76,9.88a19.11,19.11,0,0,0-1.9,7.94c0,4.23,2.32,7,10.57,9.17l13.93,3.53c15,3.87,20.7,7.93,20.7,18.69a37.25,37.25,0,0,1-3.37,13.57c-6.34,12.71-19,16.94-37,16.94A97.22,97.22,0,0,1,422.36,145"/><path class="cls-1" d="M172.54,50.32c-2.86,0-3.32-1.24-2.64-3.52l2.24-6.69h12.91L182,50.32Z"/><path class="cls-1" d="M408.9,50.32c-2.43,0-4.27-1.48-3.65-3.52l2.24-6.69H420.4l-3.1,10.21Z"/><path class="cls-1" d="M502.43,138.83c0-6.25,4.21-10.58,10.72-10.58s10.72,4.33,10.72,10.58-4.23,10.61-10.72,10.61-10.72-4.36-10.72-10.61m18.7,0c0-4.85-2.92-8.15-8-8.15s-8,3.3-8,8.15,2.92,8.12,8,8.12,8-3.33,8-8.12m-8.36,1.37c-.35,0-.61,0-.9,0v3.7c0,.36-.15.5-.62.5h-1.16c-.44,0-.59-.14-.59-.5V134a.68.68,0,0,1,.62-.79,18.91,18.91,0,0,1,2.77-.17c2.48,0,4.32.81,4.32,3.42v.28A3,3,0,0,1,515,140l2,3.27c.32.56.44.76.44.91s-.15.26-.41.26h-1.46a.67.67,0,0,1-.7-.44Zm.18-1.84c1.25,0,1.87-.4,1.87-1.69v-.15c0-1.11-.53-1.58-1.78-1.58-.29,0-.68,0-1,.06s-.2.12-.2.32v3c.29,0,.67,0,1.08,0"/><path class="cls-1" d="M583.56,261.46c0,.61-.22.78-.88.78h-2.29c-.62,0-.88-.17-.88-.78V248.81c0-3.78-1.15-5.19-4.23-5.19a5.83,5.83,0,0,0-4.8,2.2,22.91,22.91,0,0,1,.18,3.22v12.42c0,.61-.22.78-.88.78h-2.3c-.61,0-.87-.17-.87-.78V248.81c0-3.83-1.37-5.19-4.58-5.19-2.78,0-4.41,1.14-4.41,4.58v13.26c0,.61-.22.78-.88.78h-2.29c-.62,0-.88-.17-.88-.78V241.37c0-.52.18-.7.7-.7h1.59c.52,0,.7.13.79.61l.22,1.46H557a7.3,7.3,0,0,1,5.94-2.47c3,0,5.16,1.1,6.35,2.86h0a9.15,9.15,0,0,1,6.92-2.86c5.23,0,7.35,2.64,7.35,8.37Z"/><path class="cls-1" d="M602.75,261.87V242.09a10.75,10.75,0,0,0,0-1.5c-.06-.32-.26-.42-.71-.33l-1.54.31c-.61.12-.81.3-.89.88l-.17,1.23a8.78,8.78,0,0,0-4.86-1.85c-5.43,0-8,2.67-8,9.63v1.4c0,7,2.15,9.88,8.2,9.88a10.37,10.37,0,0,0,4.44-.85v3.16c-.14,3.91-.79,5.9-4.33,6.35-2,.26-4.25-1-5.21-1.69a.53.53,0,0,0-.46,0c-.26.06-.41.23-.47.66l-.13,1.26a3.91,3.91,0,0,0-.08,1c.06.26.35.35.64.55a10.37,10.37,0,0,0,6,1.49,8.4,8.4,0,0,0,6.42-3.56c1.17-1.8,1.26-4.17,1.23-8.23M599,254c0,3.46-1.2,4.57-4.31,4.57-3.38,0-4.46-1.69-4.46-6.88v-1.11c0-4.86,1.08-6.67,4.43-6.67,3,0,4.34,1.45,4.34,5.11Z"/><path class="cls-1" d="M512,233.64c5.48,0,8.48,2.12,8.48,7.46v.44c0,4.59-1.94,6.71-6,8.47l-3.17,1.41c-3.23,1.41-4.29,3.09-4.29,6.62v1.15h12.09c.67,0,.93.22.93.93v1.62c0,.67-.31.85-.93.85H504.25c-1,0-1.28-.27-1.28-1.15v-2.6c0-5.3,1.68-8.43,5.82-10.29l3.27-1.45c3.31-1.5,4-2.74,4-5.52v-.31c0-3.22-1.46-4.14-4.42-4.14a22,22,0,0,0-6.22,1.23,1.88,1.88,0,0,1-.57.13c-.27,0-.44-.13-.62-.7l-.31-1.06a4.28,4.28,0,0,1-.18-.88.64.64,0,0,1,.45-.67,22.07,22.07,0,0,1,7.8-1.54"/><path class="cls-1" d="M527.87,260.64a2.1,2.1,0,0,1-2.34,2.34h-.48a2.14,2.14,0,0,1-2.34-2.34v-.7a2.14,2.14,0,0,1,2.34-2.34h.48a2.1,2.1,0,0,1,2.34,2.34Z"/><path class="cls-1" d="M544.26,253.36c0-3.44-1.23-5.42-5-5.42a12.75,12.75,0,0,0-5.34,1.32,2.24,2.24,0,0,1-.75.26,1.49,1.49,0,0,1-.75-.26l-.66-.35a.73.73,0,0,1-.45-.71c0-.09,0-.22.09-1.72l.8-11.47c0-.66.31-1,1.06-1h12.44c.7,0,.93.17.93.79v1.85c0,.62-.23.8-.93.8h-9.4c-.44,0-.62.13-.66.57l-.49,7.46a13.46,13.46,0,0,1,5.3-1.06c5.6,0,8.2,3.35,8.2,8.78v.57c0,6.8-4,9.18-10,9.18a20.31,20.31,0,0,1-7.81-1.72c-.44-.22-.61-.39-.61-.75a3.48,3.48,0,0,1,.3-1.06l.36-.88c.17-.49.35-.66.66-.66a1.68,1.68,0,0,1,.62.17,18.39,18.39,0,0,0,6.57,1.51c3.89,0,5.47-1.9,5.47-5.83Z"/><path class="cls-1" d="M555.3,220.66c0,.61-.23.8-.88.8h-2.29c-.62,0-.89-.19-.89-.8V208c0-3.78-1.14-5.19-4.22-5.19a5.83,5.83,0,0,0-4.8,2.2,22.85,22.85,0,0,1,.18,3.21v12.42c0,.61-.23.8-.89.8h-2.29c-.61,0-.88-.19-.88-.8V208c0-3.83-1.36-5.19-4.58-5.19-2.77,0-4.41,1.14-4.41,4.58v13.25c0,.61-.21.8-.87.8h-2.3c-.61,0-.87-.19-.87-.8V200.58c0-.53.18-.7.7-.7h1.59c.52,0,.7.13.79.61l.22,1.46h.09a7.3,7.3,0,0,1,5.94-2.47c3,0,5.15,1.1,6.34,2.86h0a9.15,9.15,0,0,1,6.91-2.86c5.24,0,7.36,2.64,7.36,8.37Z"/><path class="cls-1" d="M574.49,221.08V201.3a10.26,10.26,0,0,0-.06-1.5c0-.32-.25-.42-.7-.33l-1.54.31c-.62.12-.81.3-.89.88l-.17,1.23a8.76,8.76,0,0,0-4.87-1.86c-5.41,0-8,2.68-8,9.64v1.4c0,7,2.15,9.87,8.2,9.87a10.38,10.38,0,0,0,4.44-.84v3.16c-.14,3.9-.79,5.89-4.34,6.35-2,.25-4.24-1.05-5.21-1.69a.51.51,0,0,0-.45,0c-.27.05-.42.23-.48.66l-.12,1.26a3.89,3.89,0,0,0-.08,1c0,.26.34.35.65.54a10.33,10.33,0,0,0,6,1.5,8.44,8.44,0,0,0,6.43-3.56c1.17-1.81,1.26-4.17,1.23-8.23m-3.72-7.83c0,3.45-1.2,4.57-4.31,4.57-3.38,0-4.46-1.7-4.46-6.88v-1.11c0-4.86,1.08-6.67,4.42-6.67,3,0,4.35,1.44,4.35,5.11Z"/><path class="cls-1" d="M516.3,212.27c0-3.44-1.24-5.43-5-5.43a12.65,12.65,0,0,0-5.34,1.33,2.24,2.24,0,0,1-.75.26,1.6,1.6,0,0,1-.75-.26l-.66-.36a.7.7,0,0,1-.44-.7c0-.09,0-.22.09-1.72l.79-11.48c0-.66.31-1,1.06-1h12.44c.71,0,.93.18.93.8v1.85c0,.62-.22.79-.93.79h-9.4c-.44,0-.61.14-.66.58l-.48,7.46a13.37,13.37,0,0,1,5.29-1.06c5.61,0,8.21,3.35,8.21,8.78v.57c0,6.8-4,9.18-10,9.18a20.22,20.22,0,0,1-7.8-1.72c-.44-.22-.62-.4-.62-.75a3.57,3.57,0,0,1,.31-1.06l.35-.88c.18-.49.35-.66.66-.66a1.68,1.68,0,0,1,.62.17,18.65,18.65,0,0,0,6.57,1.5c3.89,0,5.48-1.89,5.48-5.82Z"/><path class="cls-2" d="M196.71,31.33c142.77-66.15,132.08-8.28,201.87,0C329.84,39.23,308.22-8.24,196.71,31.33Z"/></svg>