<?xml version="1.0" encoding="utf-8"?>
<!-- Generator: Adobe Illustrator 24.0.1, SVG Export Plug-In . SVG Version: 6.00 Build 0)  -->
<svg version="1.1" id="Layer_1" xmlns="http://www.w3.org/2000/svg" xmlns:xlink="http://www.w3.org/1999/xlink" x="0px" y="0px"
	 viewBox="0 0 94 93.812" style="enable-background:new 0 0 94 93.812;" xml:space="preserve">
<style type="text/css">
	.st0{fill-rule:evenodd;clip-rule:evenodd;fill:#7F2854;}
	.st1{fill-rule:evenodd;clip-rule:evenodd;fill:#8D3F64;}
	.st2{fill:#FFFFFF;}
	.st3{fill:none;stroke:#7F2854;stroke-width:1.3792;stroke-linejoin:round;stroke-miterlimit:10;}
</style>
<g>
	<path class="st0" d="M47,0c25.957,0,47,21,47,46.906c0,25.905-21.043,46.906-47,46.906s-47-21-47-46.906C0,21,21.043,0,47,0z"/>
	<path class="st1" d="M47,0c25.957,0,47,21,47,46.906H0C0,21,21.043,0,47,0z"/>
</g>
<g>
	<g>
		<path class="st2" d="M47,30.819c4.059-7.794,8.173-11.691,16.292-11.691c8.985,0,16.292,6.982,16.292,15.588
			c0,15.588-16.292,31.177-32.584,46.765C30.708,65.893,14.416,50.305,14.416,34.716c0-8.606,7.307-15.588,16.292-15.588
			C38.881,19.128,42.941,23.025,47,30.819z"/>
	</g>
	<polyline class="st3" points="22.351,46.802 25.119,46.802 26.211,48.387 28.662,34.851 31.311,52.572 32.37,47.214 33.927,47.214 
		34.953,48.863 37.304,34.851 40.483,53.25 41.94,46.961 47.006,46.961 47.801,48.197 50.185,34.851 53.232,52.603 54.391,47.119 
		57.783,47.119 	"/>
</g>
</svg>
