<?xml version="1.0" encoding="utf-8"?>
<!-- Generator: Adobe Illustrator 24.0.1, SVG Export Plug-In . SVG Version: 6.00 Build 0)  -->
<svg version="1.1" id="Layer_1" xmlns="http://www.w3.org/2000/svg" xmlns:xlink="http://www.w3.org/1999/xlink" x="0px" y="0px"
	 viewBox="0 0 27 26.887" style="enable-background:new 0 0 27 26.887;" xml:space="preserve">
<style type="text/css">
	.st0{clip-path:url(#SVGID_2_);fill:#F47837;}
	.st1{clip-path:url(#SVGID_2_);fill:#FFFFFF;}
	.st2{clip-path:url(#SVGID_2_);fill:#6D6E71;}
</style>
<g>
	<defs>
		<rect id="SVGID_1_" x="0" width="27" height="26.887"/>
	</defs>
	<clipPath id="SVGID_2_">
		<use xlink:href="#SVGID_1_"  style="overflow:visible;"/>
	</clipPath>
	<path class="st0" d="M11.947,17.064c-0.177,0-0.352-0.045-0.506-0.128c-0.343-0.187-0.556-0.545-0.556-0.935v-1.908
		c-1.086-0.634-1.745-1.801-1.745-3.131v-7.32C9.14,1.633,10.867,0,12.988,0h10.164C25.274,0,27,1.633,27,3.642v7.32
		c0,2.007-1.726,3.642-3.849,3.642h-7.61c-1.335,1.192-2.945,2.243-3.016,2.288C12.353,17.006,12.152,17.064,11.947,17.064"/>
	<path class="st1" d="M18.673,10.694c0,0.346-0.266,0.613-0.598,0.613c-0.331,0-0.607-0.267-0.607-0.613V10.47
		c0-0.335,0.276-0.613,0.607-0.613c0.332,0,0.598,0.278,0.598,0.613V10.694z"/>
	<path class="st1" d="M18.673,8.617c0,0.346-0.266,0.613-0.598,0.613c-0.331,0-0.607-0.267-0.607-0.613V4.108
		c0-0.335,0.276-0.613,0.607-0.613c0.332,0,0.598,0.278,0.598,0.613V8.617z"/>
	<path class="st2" d="M20.123,21.035c-0.571-0.489-1.71-0.944-3.029-1.444c-0.251-0.095-0.474-0.18-0.646-0.249
		c-0.305-0.124-0.606-0.187-0.894-0.187c-0.717,0-1.239,0.382-1.613,0.714c-0.43,0.384-0.619,0.701-0.769,0.956
		c-0.104,0.175-0.186,0.314-0.344,0.479c-0.015,0.017-0.063,0.066-0.193,0.066c-0.051,0-0.092-0.009-0.083-0.006
		c-3.468-1.131-6.349-5.618-6.377-5.663l-0.02-0.03L6.43,15.39c0.396-0.4,0.577-0.583,0.906-1.023
		c0.646-0.864,0.098-2.55-1.066-5.167C6.146,8.921,6.048,8.702,6.001,8.573C5.877,8.236,5.491,7.671,4.299,7.671
		c-0.367,0-0.662,0.051-0.674,0.054C2.399,7.913,1.402,8.638,0.742,9.824c-0.758,1.361-0.965,3.246-0.48,4.385
		c3.065,7.228,9.457,12.678,14.869,12.678c1.461,0,2.763-0.405,3.847-1.189c0.15-0.098,1.473-1.029,1.71-3.328
		C20.733,21.93,20.55,21.328,20.123,21.035"/>
</g>
</svg>
