<?xml version="1.0" encoding="utf-8"?>
<!-- Generator: Adobe Illustrator 24.0.1, SVG Export Plug-In . SVG Version: 6.00 Build 0)  -->
<svg version="1.1" id="Layer_1" xmlns="http://www.w3.org/2000/svg" xmlns:xlink="http://www.w3.org/1999/xlink" x="0px" y="0px"
	 viewBox="0 0 94.189 94" style="enable-background:new 0 0 94.189 94;" xml:space="preserve">
<style type="text/css">
	.st0{fill-rule:evenodd;clip-rule:evenodd;fill:#394E78;}
	.st1{fill-rule:evenodd;clip-rule:evenodd;fill:#4A5D80;}
	.st2{fill:#394E78;}
	.st3{fill:#8693B0;}
	.st4{fill-rule:evenodd;clip-rule:evenodd;fill:#8693B0;}
	.st5{fill:#FFFFFF;}
	.st6{fill:#FFFFFF;stroke:#8693B0;stroke-width:0.6744;stroke-miterlimit:10;}
</style>
<g>
	<g>
		<path class="st0" d="M0.001,46.973C0.001,46.982,0,46.991,0,47c0,25.957,21.085,47,47.094,47c26.01,0,47.094-21.043,47.094-47
			c0-0.009-0.001-0.018-0.001-0.027H0.001z"/>
		<path class="st1" d="M47.094,0C21.094,0,0.015,21.028,0.001,46.973h94.188C94.174,21.028,73.095,0,47.094,0z"/>
	</g>
	<g>
		<path class="st2" d="M50.818,64.433c-1.681-7.558-2.799-18.457,0.091-31.02c0.359,2.07-0.785-3.388,2.294-7.733
			C37.577,37.433,31.885,51.998,30.875,54.118c-1.111,2.33-8.353,10.04-9.403,12.172c-1.05,2.133-0.435,6.908,0,10.3
			c0.228,1.774,2.815,7.622,5.218,12.775c6.109,2.94,12.952,4.597,20.179,4.635c0.011-1.096-0.01-2.019-0.01-2.429
			c0-6.293-5.366-14.442-6.582-15.918c0.106-0.474-0.786-2.249,0-4.681C40.567,70.075,45.213,67.708,50.818,64.433z"/>
		<g>
			<path class="st3" d="M76.016,83.784c-0.26-0.41-2.146-1.034-3.311-3.31c-0.68-1.33,3.766-13.009,5.358-23.897
				c0.409-2.798,0.979-8.49,1.416-14.438c-6.182,5.749-14.977,13.088-18.516,15.723c-3.258,2.426-6.865,4.653-10.145,6.57
				c1.303,5.858,2.944,9.71,3.321,10.772c0.862,2.433,1.193,13.006,1.958,15.256c0.248,0.728,0.817,1.529,1.562,2.35
				c6.949-1.587,13.31-4.704,18.71-8.983C76.234,83.809,76.113,83.794,76.016,83.784z"/>
			<path class="st3" d="M58.383,21.846c-2.441,0.874-4.08,2.281-5.18,3.833c1.548-1.165,3.191-2.303,4.939-3.397
				C58.247,22.133,58.316,21.99,58.383,21.846z"/>
			<path class="st2" d="M79.479,42.14c0.518-7.047,0.85-14.453,0.507-17.833c-10.599-3.88-17.327-3.991-21.603-2.461
				c-0.067,0.143-0.136,0.287-0.241,0.436c-1.749,1.095-3.391,2.233-4.939,3.397c-3.079,4.345-1.936,9.803-2.294,7.733
				c-2.89,12.563-1.772,23.462-0.091,31.02c3.28-1.917,6.888-4.143,10.145-6.57C64.501,55.228,73.297,47.889,79.479,42.14z"/>
		</g>
		<path class="st4" d="M60.492,1.944c-1.114,1.178-1.638,2.415-1.328,3.697c-1.562,4.203-2.015,10.073-2.015,10.073
			s0.058,5.035-1.022,6.568C36.732,34.424,29.971,51.788,28.86,54.118c-1.111,2.33-8.353,10.04-9.403,12.172s-0.435,6.908,0,10.3
			c0.207,1.615,2.369,6.604,4.568,11.373c6.208,3.494,13.284,5.629,20.83,5.986c0.01-1.073-0.01-1.974-0.01-2.378
			c0-6.293-5.366-14.442-6.582-15.918c0.106-0.474-0.786-2.25,0-4.682c0.46-1.421,11.861-6.536,20.686-13.109
			c4.954-3.69,20.219-16.604,24.179-21.458c2.664-2.609,5.05-5.374,7.155-8.202C84.762,15.604,73.87,5.892,60.492,1.944z"/>
		<g>
			<path class="st5" d="M64.253,13.81c-2.514,12.132,13.098,22.162,13.098,22.162c1.157,0.065,4.231-1.138,6.044-3.022
				c1.928-1.112,0.878-2.957,2.802-10.074c0.031-0.912-0.142-1.841-0.47-2.77c-4.02-5.735-9.288-10.529-15.413-13.996
				C70.603,8.21,68.615,12.505,64.253,13.81z M70.299,22.876c-2.63,2.311,0.093-5.327-3.022-5.037c0,0,3.022-1.761,3.022-3.022
				C70.299,13.556,72.929,20.565,70.299,22.876z"/>
		</g>
		<path class="st6" d="M29.559,62.326c0,0,5.949-6.926,11.267-12.078c5.317-5.151,12.166-11.87,16.584-14.97
			c4.418-3.101,12.463-8.019,14.016-9.687c1.553-1.668,3.307-4.134,3.249-4.946c-0.319-0.561-1.168-3.776,1.197-4.985
			c2.365-1.209,4.666-0.272,5.382,1.154c0.715,1.426,0.908,3.85-1.053,5.217c0.632,0.572,2.065,3.16-0.715,4.685
			c-0.053,0.588-1.542,2.539-7.407,4.288c-4.828,2.888-10.908,6.636-12.729,8.038c-1.869,1.439-18.651,16.97-23.716,25.14
			c0.483,1.366,0.516,4.133-0.158,4.777c-0.706,0.675-4.249,2.79-6.412-0.484c-0.192-0.67-0.746-1.027-1.245-1.564
			C27.057,65.28,27.03,63.235,29.559,62.326z"/>
		<path class="st5" d="M25.661,67.8c0.224-0.498,1.651-1.441,1.974-0.935c0.324,0.506-1.135,3.691-1.328,4.053
			c-0.393,0.424-1.011,0.821-1.232,0.532C24.853,71.159,24.563,70.237,25.661,67.8z"/>
		<g>
			<path class="st5" d="M32.522,75.687c0.069-0.642-0.373-1.51-0.795-1.769c-0.2-0.34-0.457-0.592-0.681-0.607
				c-0.014-0.001-0.027-0.001-0.041,0c-0.699,0.046-0.676,0.64-0.898,1.123c-0.222,0.483-0.596,0.396-1.198,1.352
				c-0.025,0.379,0.349,0.858,0.853,1.375c0.62,0.79,1.842,1.74,2.489,2.588c0.902,1.182,2.414,6.484,3.161,8.559
				c0.241,0.671,1.012,2.492,1.963,4.686c0.731,0.153,1.468,0.288,2.21,0.407c-0.984-2.386-1.734-4.251-2.051-5.136
				C37.294,87.593,32.823,76.393,32.522,75.687z"/>
			<path class="st5" d="M34.114,88.066c-0.193-0.537-0.424-1.261-0.694-2.097c-1.235-2.897-2.247-5.366-2.695-6.666
				c-0.245-0.267-0.53-0.547-0.819-0.822c-1.017-0.968-1.847-1.8-1.784-2.748l0.014-0.216l0.068-0.186
				c0.413-0.657,0.72-0.939,0.954-1.124c0.131-0.104,0.133-0.108,0.143-0.128c0.031-0.068,0.061-0.157,0.092-0.255
				c0.135-0.421,0.416-1.288,1.548-1.362c0.053-0.004,0.106,0.013,0.159,0.017l0,0h0c0.273,0.018,0.685,0.124,1.093,0.602
				c0.106,0.124,0.209,0.271,0.304,0.431c0.026-0.457-0.025-0.972-0.236-1.5c-0.909-0.764-1.419,0.169-2.117-0.034
				c-0.698-0.203-0.291-0.86-1.221-0.908c-0.93-0.047-0.999,0.742-1.7,0.819c-0.701,0.077-2.459-0.119-2.274,2.789
				c0.185,2.908,3.172,7.688,4.497,10.58c0.502,1.095,1.648,3.536,3.032,6.421c1.17,0.382,2.359,0.718,3.566,1.008
				C35.115,90.538,34.363,88.756,34.114,88.066z"/>
		</g>
	</g>
</g>
</svg>
