<?xml version="1.0" encoding="utf-8"?>
<!-- Generator: Adobe Illustrator 22.0.1, SVG Export Plug-In . SVG Version: 6.00 Build 0)  -->
<svg version="1.1" id="Layer_1" xmlns="http://www.w3.org/2000/svg" xmlns:xlink="http://www.w3.org/1999/xlink" x="0px" y="0px"
	 viewBox="0 0 18.4 30.6" style="enable-background:new 0 0 18.4 30.6;" xml:space="preserve">
<style type="text/css">
	.st0{clip-path:url(#SVGID_2_);fill:#BCBEC0;}
</style>
<g>
	<defs>
		<rect id="SVGID_1_" width="18.4" height="30.6"/>
	</defs>
	<clipPath id="SVGID_2_">
		<use xlink:href="#SVGID_1_"  style="overflow:visible;"/>
	</clipPath>
	<path class="st0" d="M18.1,13.1c0,0-1.9-1.6-2.6-2.4c-0.8-1-2-3.1-2.8-4c-0.4-0.6-1.3-0.8-1.9-0.8c-0.1,0-0.5,0-0.6,0l-0.1-0.9
		c0.9-0.4,1.6-1.3,1.6-2.3c0-1.4-1.1-2.5-2.5-2.5S6.7,1.1,6.7,2.5c0,1.1,0.6,2,1.6,2.3L8.2,5.8c-0.1,0-0.5,0-0.6,0
		C7,5.9,6.1,6.1,5.7,6.6c-0.8,1-2,3.1-2.8,4c-0.7,0.8-2.6,2.4-2.6,2.4c-0.6,0.4-0.3,1-0.1,1.3c0.4,0.4,1,0.6,1.5,0.1
		c0,0,2.1-1.8,2.7-2.4c0.6-0.7,1.6-1.9,1.6-1.9c0,0-0.1,1.8-0.3,2.8c-0.3,1.9-2.4,7.3-2.4,7.3h2.3v9c0,0.6,0.4,1.2,1,1.2
		c0.7,0.1,1.2-0.5,1.2-1.2l0.7-9h0.9l0.7,9c0,0.7,0.6,1.2,1.2,1.2c0.6-0.1,1-0.6,1-1.2v-9H15c0,0-2.1-5.4-2.4-7.2
		c-0.2-1.1-0.3-2.9-0.3-2.9c0,0,1,1.2,1.6,1.9c0.6,0.7,2.7,2.4,2.7,2.4c0.5,0.5,1.1,0.3,1.5-0.1C18.4,14.1,18.7,13.6,18.1,13.1"/>
</g>
</svg>
