<?xml version="1.0" encoding="utf-8"?>
<!-- Generator: Adobe Illustrator 24.0.1, SVG Export Plug-In . SVG Version: 6.00 Build 0)  -->
<svg version="1.1" id="Layer_1" xmlns="http://www.w3.org/2000/svg" xmlns:xlink="http://www.w3.org/1999/xlink" x="0px" y="0px"
	 viewBox="0 0 38.093 38.093" style="enable-background:new 0 0 38.093 38.093;" xml:space="preserve">
<style type="text/css">
	.st0{fill:#FFFFFF;stroke:#F18224;stroke-width:1.1204;stroke-miterlimit:10;}
	.st1{fill:#F88D2B;}
	.st2{fill:#F26F28;}
	.st3{fill:#FFFFFF;}
</style>
<g>
	<circle id="SVGID_1_" class="st0" cx="19.047" cy="19.047" r="18.486"/>
</g>
<g>
	<path class="st1" d="M24.627,15.406L24.62,14.38c-0.002-0.252-0.208-0.454-0.459-0.453l-1.877,0.013
		c-0.251,0.002-0.454,0.207-0.452,0.459l0.006,0.953l-4.891,0.034l-0.007-0.953c-0.001-0.252-0.208-0.454-0.459-0.453l-1.877,0.013
		c-0.251,0.002-0.453,0.207-0.451,0.459l0.007,1.024c-1.011,0.787-5.979,8.171-5.975,8.709l0.031,4.541
		c0.004,0.568,0.467,1.024,1.035,1.02l16.45-0.113l0.002,0l4.024-0.027c0.568-0.004,1.026-0.467,1.022-1.035l-0.031-4.541
		C30.716,23.494,25.651,16.184,24.627,15.406z"/>
	<path class="st2" d="M29.693,24.401l-4.024,0.028l-0.002,0l-16.45,0.113c-0.419,0.003-0.779-0.246-0.941-0.604
		c-0.056,0.118-0.089,0.206-0.089,0.248l0.031,4.541c0.004,0.568,0.467,1.024,1.035,1.02l16.45-0.113l0.002,0l4.024-0.027
		c0.568-0.004,1.026-0.467,1.022-1.035l-0.031-4.541c0-0.042-0.034-0.129-0.092-0.247C30.469,24.145,30.112,24.398,29.693,24.401z"
		/>
	<path class="st3" d="M24.907,20.094c0.012,1.69-2.433,3.074-5.462,3.095c-3.027,0.021-5.491-1.33-5.502-3.019
		c-0.011-1.689,2.434-3.074,5.461-3.095C22.432,17.053,24.896,18.405,24.907,20.094z"/>
	<path class="st1" d="M23.013,20.107c0.008,1.106-1.592,2.012-3.575,2.026c-1.981,0.014-3.594-0.871-3.601-1.976
		c-0.007-1.105,1.593-2.012,3.574-2.026C21.394,18.116,23.006,19.002,23.013,20.107z"/>
	<g>
		<path class="st1" d="M32.263,12.428c-2.193-2.362-7.129-4.2-13.065-4.076l0,0c-6.163-0.025-11.241,2.037-13.411,4.543
			c-0.033,0.381-0.053,0.767-0.046,1.156c0.026,1.383,0.323,2.698,0.846,3.895c0.156,0.362,0.851,0.693,1.057,0.586
			c1.345-0.702,2.739-1.463,3.968-2.254c0.191-0.124,0.536-0.68,0.484-0.911c-0.133-0.585-0.269-1.168-0.403-1.754
			c-0.129-0.539,0.371-1.14,1.125-1.278c0.83-0.154,4.381-0.358,6.183-0.439c1.797,0.018,5.376,0.096,6.214,0.221
			c0.76,0.111,1.281,0.695,1.17,1.237c-0.113,0.591-0.227,1.179-0.341,1.768c-0.044,0.233,0.32,0.777,0.517,0.894
			c1.256,0.747,2.675,1.458,4.045,2.112c0.209,0.1,0.893-0.256,1.036-0.623c0.481-1.215,0.73-2.539,0.709-3.922
			C32.345,13.192,32.31,12.807,32.263,12.428z"/>
		<g>
			<path class="st2" d="M6.587,17.945c0.156,0.362,0.851,0.693,1.057,0.586c1.345-0.702,2.739-1.463,3.968-2.254
				c0.191-0.124,0.536-0.68,0.484-0.911c-0.059-0.258-0.118-0.516-0.178-0.774c-2.106,0.631-4.009,1.513-5.626,2.59
				C6.382,17.441,6.478,17.696,6.587,17.945z"/>
			<path class="st2" d="M26.196,14.338c-0.05,0.261-0.101,0.522-0.151,0.782c-0.044,0.233,0.32,0.777,0.517,0.894
				c1.256,0.747,2.675,1.458,4.045,2.112c0.209,0.1,0.893-0.256,1.036-0.623c0.1-0.253,0.188-0.512,0.268-0.774
				C29.994,15.617,28.117,14.821,26.196,14.338z"/>
		</g>
	</g>
</g>
</svg>
