<?xml version="1.0" encoding="utf-8"?>
<!-- Generator: Adobe Illustrator 24.0.1, SVG Export Plug-In . SVG Version: 6.00 Build 0)  -->
<svg version="1.1" id="Layer_1" xmlns="http://www.w3.org/2000/svg" xmlns:xlink="http://www.w3.org/1999/xlink" x="0px" y="0px"
	 viewBox="0 0 27.719 37" style="enable-background:new 0 0 27.719 37;" xml:space="preserve">
<style type="text/css">
	.st0{fill-rule:evenodd;clip-rule:evenodd;fill:#E0E1E2;}
	.st1{fill-rule:evenodd;clip-rule:evenodd;fill:#77787B;}
	.st2{fill-rule:evenodd;clip-rule:evenodd;fill:#D1D3D4;}
	.st3{fill-rule:evenodd;clip-rule:evenodd;fill:#58595B;}
	.st4{fill-rule:evenodd;clip-rule:evenodd;fill:#FFFFFF;}
	.st5{fill:#58595B;}
	.st6{fill-rule:evenodd;clip-rule:evenodd;fill:#C7C8CA;}
	.st7{fill-rule:evenodd;clip-rule:evenodd;fill:#9D9FA2;}
</style>
<g>
	<path class="st0" d="M15.209,32.938c6.746,0.169,12.824,1.616,12.497,2.484c-0.327,0.868-7.72,1.742-12.118,1.552
		c-4.398-0.19-10.011-1.292-9.846-2.173C5.906,33.919,8.463,32.769,15.209,32.938z"/>
	<path class="st1" d="M20.662,8.605l3.865,24.16c0,0-2.162,3.088-7.971,3.988c-5.809,0.899-8.696-0.938-8.696-0.938L2.545,11.42
		L20.662,8.605z"/>
	<path class="st0" d="M21.187,8.544c-6.701,4.354-11.917,4.297-15.379,4.379c-3.462,0.081-4.718-1.48-4.718-1.48L0.018,5.311
		c-0.341-1.94,5.108-3.714,9.222-4.652c3.944-0.899,9.886-0.992,10.786,0.442C20.025,1.101,21.402,4.518,21.187,8.544z"/>
	<path class="st2" d="M14.382,4.791c0,0-8.226,1.515-10.937,0.423C2.245,4.859,5.156,3.467,4.302,2.677
		c-0.854-0.791-4.418,1.01-4.299,2.496C0.153,7.046,7.986,8.289,14.382,4.791z"/>
	<path class="st3" d="M5.654,15.341c0,0,3.334,0.682,6.281,0.235c2.947-0.447,6.281-1.877,6.281-1.877L20.872,26.6
		c0,0-3.257,2.838-8.213,2.815c-4.956-0.023-4.348-0.938-4.348-0.938L5.654,15.341z"/>
	<path class="st4" d="M5.138,15.044c0,0,3.334,0.682,6.281,0.235c2.947-0.447,6.281-1.877,6.281-1.877l2.657,12.901
		c0,0-3.257,2.838-8.213,2.815c-4.956-0.023-4.348-0.938-4.348-0.938L5.138,15.044z"/>
	<path class="st5" d="M15.023,18.77l-0.076-0.327c0.195-0.119,0.19-0.118,0.186-0.181l-0.494-2.188
		c-0.03-0.131-0.052-0.131-0.231-0.127l-0.076-0.327l1.193-0.275c0.483-0.112,0.72-0.145,0.969-0.054
		c0.284,0.104,0.474,0.352,0.532,0.604c0.1,0.433-0.103,0.703-0.571,0.996c0.221,0.108,0.284,0.152,0.486,0.312l0.222-0.486
		l0.349,0.158l-0.258,0.606c0.258,0.269,0.348,0.312,0.586,0.289l0.077,0.332l-0.735,0.17c-0.07,0.016-0.081,0.011-0.136-0.016
		c-0.073-0.035-0.067-0.036-0.115-0.058l-0.382,0.852l-0.348-0.153l0.411-0.975c-0.215-0.29-0.373-0.466-0.636-0.665
		c-0.159-0.123-0.222-0.134-0.363-0.102l0.192,0.831c0.043,0.186,0.056,0.22,0.26,0.184l0.079,0.342L15.023,18.77z M16.266,16.087
		c-0.089-0.388-0.392-0.413-0.961-0.282l0.22,0.952c0.092-0.016,0.177-0.036,0.233-0.048C16.16,16.615,16.336,16.389,16.266,16.087z
		"/>
	<path class="st6" d="M12.203,29.118c2.232-0.002,4.115-0.581,5.507-1.215c-2.757,0.315-6.162,0.13-8.496-2.339
		c-0.667-0.705-1.516-1.624-2.357-2.025l0.835,4.177c0.489,0.157,0.996,0.335,1.522,0.538C10.25,28.652,11.25,28.932,12.203,29.118z
		"/>
	<path class="st7" d="M13.227,29.074c-1.342-0.441-2.688-1.034-3.976-1.832c-0.616-0.381-1.367-1.379-1.986-1.655l0.517,2.591
		c0,0-0.608,0.915,4.348,0.938C12.507,29.119,12.872,29.103,13.227,29.074z"/>
	<path class="st3" d="M8.425,27.876c-0.264-0.163-0.529-0.313-0.794-0.452l0.153,0.756c0,0-0.499,0.751,3.092,0.91
		C10.046,28.767,9.222,28.37,8.425,27.876z"/>
</g>
</svg>
