<?xml version="1.0" encoding="utf-8"?>
<!-- Generator: Adobe Illustrator 24.0.1, SVG Export Plug-In . SVG Version: 6.00 Build 0)  -->
<svg version="1.1" id="Layer_1" xmlns="http://www.w3.org/2000/svg" xmlns:xlink="http://www.w3.org/1999/xlink" x="0px" y="0px"
	 viewBox="0 0 27 26.887" style="enable-background:new 0 0 27 26.887;" xml:space="preserve">
<style type="text/css">
	.st0{clip-path:url(#SVGID_2_);fill:#76004B;}
	.st1{clip-path:url(#SVGID_2_);fill:#FFFFFF;}
</style>
<g>
	<defs>
		<rect id="SVGID_1_" width="27" height="26.887"/>
	</defs>
	<clipPath id="SVGID_2_">
		<use xlink:href="#SVGID_1_"  style="overflow:visible;"/>
	</clipPath>
	<path class="st0" d="M0,13.444c0,7.424,6.043,13.443,13.499,13.443S27,20.868,27,13.444S20.955,0,13.499,0S0,6.019,0,13.444"/>
	<path class="st1" d="M14.697,19.366c0,0.486,0.103,0.615,0.548,0.615h0.961c0.621,0,0.654,1.592,0,1.592h-5.136
		c-0.662,0-0.684-1.592,0-1.592c0.408,0,0.707-0.002,0.926,0c0.491,0.002,0.529-0.065,0.529-0.615v-6.72
		c0-1.109-0.171-1.042-0.704-0.835c-0.216,0.085-0.435,0.154-0.767,0.273c-0.595,0.216-1.149-1.018-0.314-1.373
		c0.651-0.276,1.985-0.826,2.89-1.204c0.648-0.27,1.068,0.085,1.068,0.828V19.366z"/>
	<path class="st1" d="M13.417,5.313c0.417,0,0.772,0.147,1.065,0.438c0.293,0.292,0.44,0.645,0.44,1.06
		c0,0.415-0.147,0.77-0.44,1.068c-0.293,0.296-0.648,0.444-1.065,0.444c-0.417,0-0.775-0.148-1.072-0.444
		c-0.298-0.298-0.447-0.653-0.447-1.068c0-0.415,0.147-0.769,0.44-1.06C12.63,5.46,12.989,5.313,13.417,5.313"/>
</g>
</svg>
