<?xml version="1.0" encoding="utf-8"?>
<!-- Generator: Adobe Illustrator 24.0.1, SVG Export Plug-In . SVG Version: 6.00 Build 0)  -->
<svg version="1.1" id="Layer_1" xmlns="http://www.w3.org/2000/svg" xmlns:xlink="http://www.w3.org/1999/xlink" x="0px" y="0px"
	 viewBox="0 0 140.44 94.655" style="enable-background:new 0 0 140.44 94.655;" xml:space="preserve">
<style type="text/css">
	.st0{fill-rule:evenodd;clip-rule:evenodd;fill:#00919B;}
	.st1{fill:none;}
	.st2{fill:#149AA3;}
	.st3{fill:#0D9AA2;}
	.st4{fill:#FFFFFF;}
	.st5{fill-rule:evenodd;clip-rule:evenodd;fill:#0D9AA2;}
	.st6{fill-rule:evenodd;clip-rule:evenodd;fill:none;stroke:#FFFFFF;stroke-width:1.3101;stroke-miterlimit:10;}
	.st7{fill-rule:evenodd;clip-rule:evenodd;fill:#FFFFFF;}
	.st8{fill-rule:evenodd;clip-rule:evenodd;fill:none;stroke:#7F2854;stroke-width:0.8734;stroke-miterlimit:10;}
	.st9{fill-rule:evenodd;clip-rule:evenodd;fill:none;stroke:#A76984;stroke-width:0.8734;stroke-miterlimit:10;}
</style>
<g>
	<path class="st0" d="M93.19,46.502c0,25.682-20.861,46.502-46.595,46.502S0,72.184,0,46.502l41.662-25.859L93.19,46.502z"/>
	<g>
		<path class="st1" d="M26.636,67.087c-0.879-0.409-1.4-0.91-1.549-1.489c-0.196-0.765,0.319-1.474,0.324-1.482
			c0.161-0.218,0.116-0.527-0.101-0.689c-0.217-0.163-0.524-0.119-0.687,0.097c-0.033,0.043-0.8,1.079-0.494,2.305
			c0.221,0.886,0.926,1.61,2.092,2.152c0.005,0.002,0.01,0.005,0.015,0.007c0.243,0.103,0.527-0.004,0.639-0.246
			C26.99,67.494,26.883,67.201,26.636,67.087z"/>
		<path class="st2" d="M27.501,45.2c-0.535-4.528,1.526-10.668,2.863-14.058c0.285-0.722-0.34-1.495-1.099-1.334
			c-0.716,0.152-1.586,0.139-2.579-0.251c-2.089-0.822-10.904-1.764-20.436-6.307C2.282,30.091,0,38.028,0,46.502h27.522
			C27.546,46.041,27.548,45.598,27.501,45.2z"/>
		<path class="st3" d="M41.804,24.537c5.052,3.984,3.826,4.703,3.177,7.14c-0.65,2.437-0.542,2.483-0.542,2.483l-5.242,12.342H93.19
			C93.19,20.819,72.329,0,46.595,0C37.284,0,28.618,2.736,21.34,7.432C33.084,14.265,37.937,21.487,41.804,24.537z"/>
		<path class="st4" d="M42.535,23.25c-3.869-3.048-9.45-8.983-21.194-15.818c-6.201,4-11.385,9.424-15.093,15.818
			c9.533,4.542,18.346,5.485,20.438,6.306c0.991,0.389,1.865,0.402,2.577,0.253c0.76-0.162,1.384,0.611,1.101,1.332
			c-1.336,3.389-3.398,9.529-2.865,14.058c0.048,0.397,0.048,0.843,0.022,1.301c-0.231,4.507-3.542,11.63-4.481,13.66
			c-1.044,2.236-2.524,2.917-3.302,3.778c-1.306,1.446-1.729,3.328-1.585,4.463c0.236,1.865,1.581,2.677,3.585,3.441
			c2.074,0.79,2.747-0.799,5.734,1.004c2.983,1.804,5.699,4.031,7.048,4.424c1.349,0.393,3.21,1.179,4.52,2.092
			c1.31,0.913,3.127,0.799,4.166-0.812c1.044-1.611-1.908-1.882-2.882-2.743c-0.978-0.86-0.598-1.328-2.092-2.227
			c-1.494-0.904-1.834-3.459-3.55-6.153c-1.712-2.69-1.882-4.817-1.358-6.468c0.524-1.655,2.856-7.359,2.856-7.359l3.018-7.101
			l5.241-12.341c0,0-0.109-0.048,0.542-2.481C45.632,29.242,47.588,27.237,42.535,23.25z M26.875,67.742
			c-0.114,0.24-0.397,0.349-0.638,0.245c-0.009,0-0.013-0.004-0.017-0.004c-1.166-0.542-1.869-1.266-2.092-2.153
			c-0.306-1.227,0.463-2.262,0.493-2.306c0.166-0.218,0.472-0.258,0.69-0.096c0.214,0.162,0.262,0.472,0.1,0.69
			c-0.004,0.004-0.52,0.716-0.323,1.48c0.148,0.581,0.668,1.079,1.546,1.489C26.884,67.2,26.988,67.493,26.875,67.742z"/>
	</g>
</g>
<g>
	<g>
		<path class="st0" d="M139.785,47.498C139.785,73.181,118.924,94,93.19,94S46.595,73.181,46.595,47.498l44.206-27.201
			L139.785,47.498z"/>
		<path class="st5" d="M93.19,0.997c25.734,0,46.595,20.819,46.595,46.502h-93.19C46.595,21.816,67.456,0.997,93.19,0.997z"/>
	</g>
	<path class="st6" d="M93.19,0.997c25.734,0,46.595,20.819,46.595,46.502C139.785,73.18,118.924,94,93.19,94
		S46.595,73.18,46.595,47.498C46.595,21.816,67.456,0.997,93.19,0.997z"/>
</g>
<g>
	<path class="st7" d="M122.548,40.437c-2.233-8.651-11.069-23.914-19.988-21.712c-2.688,0.664-4.131,4.177-4.829,9.677
		c-0.021-0.013-0.043-0.023-0.064-0.035c0.059,0.705,0.309,2.597,0.881,4.524c0.037,0.05,0.007,0.092,0.034,0.15
		c0.011,0.024,2.038,1.499,4.495,1.963c2.346,0.446,5.31-0.975,8.565-4.104c0.353-0.34,0.915-0.328,1.251,0.032
		c0.337,0.358,0.323,0.923-0.031,1.263c-1.248,1.2-2.458,2.165-3.628,2.904c2.666,1.121,3.919,3.285,3.981,3.396
		c0.242,0.429,0.093,0.975-0.331,1.219c-0.138,0.08-0.288,0.117-0.437,0.117c-0.307,0-0.605-0.161-0.768-0.449
		c-0.06-0.104-1.499-2.552-4.612-3.063c-0.047-0.008-0.084-0.034-0.128-0.049c-1.027,0.396-2.018,0.604-2.969,0.604
		c-0.423,0-0.838-0.039-1.245-0.118c-0.35-0.068-0.675-0.167-0.984-0.282c0.369,0.361,0.833,0.782,1.355,1.255
		c0.824,0.747,1.813,1.649,2.875,2.71c0.114,0.044,0.222,0.108,0.314,0.202c0.151,0.152,3.788,3.712,9.853,0.794
		c0.442-0.211,0.969-0.022,1.179,0.423c0.21,0.446,0.023,0.98-0.419,1.191c-2.026,0.974-3.834,1.328-5.389,1.328
		c-0.754,0-1.449-0.083-2.082-0.219c0.04,0.099,0.074,0.196,0.109,0.293c0.266,0.34,0.53,0.69,0.793,1.052
		c3.997,4.398,8.392,3.856,8.585,3.827c0.476-0.058,0.929,0.272,0.998,0.759c0.069,0.487-0.263,0.939-0.744,1.011
		c-0.053,0.008-0.377,0.053-0.901,0.053c-1.087,0-3.041-0.198-5.226-1.312c1.282,2.412,2.402,5.165,3.171,8.33
		c0.117,0.479-0.173,0.963-0.648,1.081c-0.071,0.018-0.142,0.026-0.211,0.026c-0.397,0-0.759-0.272-0.858-0.681
		c-1.043-4.29-2.765-7.807-4.671-10.694c-0.331,1.515-1.234,2.572-1.92,3.05c-0.153,0.107-0.327,0.157-0.5,0.157
		c-0.282,0-0.557-0.135-0.729-0.388c-0.275-0.405-0.173-0.958,0.225-1.239c0.212-0.153,1.893-1.471,1.08-4.14
		c-2.203-2.781-4.438-4.825-6.047-6.283c-0.698-0.633-3.072-2.978-3.514-3.441c-2.778-2.913-2.578-7.07-2.608-7.361
		c-0.003-0.03,0.071-0.061,0.071-0.092v-0.411c-0.003-0.001-0.006-0.002-0.009-0.002v-6.234c0-1.49-1.201-2.697-2.683-2.697
		c-1.482,0-2.683,1.208-2.683,2.697v6.234c-0.003,0.001-0.006,0.002-0.009,0.002v0.411c0,0.031,0.074,0.061,0.071,0.092
		c-0.03,0.291,0.17,4.448-2.608,7.361c-0.442,0.463-2.815,2.808-3.514,3.441c-1.609,1.458-3.843,3.502-6.047,6.283
		c-0.813,2.669,0.868,3.987,1.08,4.14c0.398,0.281,0.501,0.835,0.225,1.239c-0.172,0.253-0.447,0.388-0.729,0.388
		c-0.173,0-0.347-0.05-0.5-0.157c-0.687-0.478-1.589-1.534-1.92-3.05c-1.906,2.888-3.628,6.404-4.671,10.694
		c-0.098,0.408-0.46,0.681-0.858,0.681c-0.07,0-0.141-0.008-0.211-0.026c-0.475-0.118-0.764-0.602-0.648-1.081
		c0.769-3.165,1.889-5.919,3.171-8.33c-2.186,1.113-4.139,1.312-5.226,1.312c-0.524,0-0.848-0.045-0.901-0.053
		c-0.481-0.071-0.813-0.524-0.744-1.011c0.069-0.487,0.523-0.817,0.998-0.759c0.193,0.029,4.588,0.571,8.585-3.827
		c0.263-0.362,0.527-0.712,0.793-1.052c0.035-0.097,0.069-0.194,0.109-0.293c-0.633,0.136-1.327,0.219-2.082,0.219
		c-1.555,0-3.363-0.353-5.389-1.328c-0.441-0.212-0.629-0.746-0.419-1.191c0.21-0.445,0.737-0.635,1.179-0.423
		c6.066,2.918,9.702-0.643,9.853-0.794c0.092-0.093,0.2-0.158,0.314-0.202c1.061-1.061,2.05-1.962,2.875-2.71
		c0.522-0.473,0.986-0.895,1.355-1.255c-0.309,0.115-0.633,0.214-0.984,0.282c-0.407,0.078-0.822,0.118-1.245,0.118
		c-0.95,0-1.942-0.208-2.969-0.604c-0.044,0.014-0.081,0.041-0.128,0.049c-3.113,0.511-4.552,2.96-4.612,3.063
		c-0.163,0.288-0.461,0.449-0.768,0.449c-0.149,0-0.299-0.038-0.437-0.117c-0.424-0.245-0.573-0.79-0.331-1.219
		c0.062-0.11,1.315-2.275,3.981-3.396c-1.17-0.74-2.38-1.704-3.628-2.904c-0.354-0.34-0.368-0.906-0.031-1.263
		c0.336-0.359,0.897-0.372,1.25-0.032c3.254,3.129,6.219,4.55,8.565,4.104c2.456-0.465,4.484-1.939,4.495-1.963
		c0.027-0.059-0.003-0.1,0.034-0.15c0.571-1.926,0.822-3.818,0.881-4.524c-0.021,0.012-0.043,0.022-0.064,0.035
		c-0.698-5.5-2.142-9.014-4.829-9.677c-8.919-2.203-17.755,13.061-19.988,21.712c-2.014,7.804-2.011,33.235,7.833,31.331
		c2.483-0.48,3.131-3.509,4.862-5.772c3.789-4.952,10.91-9.878,11.615-12.093c0.534-1.679,1.296-9.119,1.003-17.266l4.044-2.808
		l4.044,2.808c-0.293,8.147,0.469,15.586,1.003,17.266c0.705,2.215,7.826,7.141,11.615,12.093c1.731,2.262,2.379,5.291,4.862,5.772
		C124.559,73.672,124.562,48.242,122.548,40.437z"/>
</g>
<g>
	<path class="st8" d="M107.866,45.659c2.477,0,4.485,2.008,4.485,4.485s-2.008,4.485-4.485,4.485s-4.485-2.008-4.485-4.485
		S105.389,45.659,107.866,45.659z"/>
	<path class="st9" d="M107.866,42.669c4.128,0,7.475,3.347,7.475,7.475s-3.347,7.475-7.475,7.475c-4.128,0-7.475-3.347-7.475-7.475
		S103.738,42.669,107.866,42.669z"/>
</g>
<g>
	<path class="st8" d="M33.4,18.766c2.477,0,4.485,2.008,4.485,4.485s-2.008,4.485-4.485,4.485s-4.485-2.008-4.485-4.485
		S30.922,18.766,33.4,18.766z"/>
	<path class="st9" d="M33.4,15.776c4.128,0,7.475,3.347,7.475,7.475s-3.347,7.475-7.475,7.475s-7.475-3.347-7.475-7.475
		S29.271,15.776,33.4,15.776z"/>
</g>
</svg>
