<?xml version="1.0" encoding="utf-8"?>
<!-- Generator: Adobe Illustrator 24.0.1, SVG Export Plug-In . SVG Version: 6.00 Build 0)  -->
<svg version="1.1" id="Layer_1" xmlns="http://www.w3.org/2000/svg" xmlns:xlink="http://www.w3.org/1999/xlink" x="0px" y="0px"
	 viewBox="0 0 18 18.028" style="enable-background:new 0 0 18 18.028;" xml:space="preserve">
<style type="text/css">
	.st0{clip-path:url(#SVGID_2_);fill:#E72E26;}
</style>
<g>
	<defs>
		<rect id="SVGID_1_" width="18" height="18.028"/>
	</defs>
	<clipPath id="SVGID_2_">
		<use xlink:href="#SVGID_1_"  style="overflow:visible;"/>
	</clipPath>
	<path class="st0" d="M11.496,9.014l5.988-5.999c0.689-0.691,0.688-1.81-0.003-2.5c-0.691-0.689-1.809-0.688-2.498,0.003L9,6.513
		L3.017,0.519C2.328-0.172,1.21-0.174,0.519,0.516s-0.692,1.809-0.003,2.5l5.988,5.999l-5.988,5.999
		c-0.689,0.692-0.688,1.81,0.003,2.5c0.344,0.344,0.796,0.517,1.248,0.517c0.452,0,0.904-0.174,1.25-0.52L9,11.515l5.984,5.994
		c0.344,0.345,0.798,0.52,1.25,0.52c0.452,0,0.903-0.173,1.248-0.517c0.691-0.689,0.692-1.807,0.003-2.5L11.496,9.014z"/>
</g>
</svg>
